<?xml version="1.0" encoding="UTF-8" standalone="no"?>
<svg width="750px" height="227px" viewBox="0 0 750 227" version="1.1" xmlns="http://www.w3.org/2000/svg" xmlns:xlink="http://www.w3.org/1999/xlink" xmlns:sketch="http://www.bohemiancoding.com/sketch/ns">
    <!-- Generator: Sketch 3.4 (15575) - http://www.bohemiancoding.com/sketch -->
    <title>Page 1</title>
    <desc>Created with Sketch.</desc>
    <defs>
        <path id="path-1" d="M0,0.224 L749.766,0.224 L749.766,227 L0,227 L0,0.224 Z"></path>
        <path id="path-3" d="M0,0.224 L749.766,0.224 L749.766,227 L0,227 L0,0.224 Z"></path>
    </defs>
    <g id="Page-1" stroke="none" stroke-width="1" fill="none" fill-rule="evenodd" sketch:type="MSPage">
        <g id="Artboard-1" sketch:type="MSArtboardGroup" transform="translate(-50.000000, -692.000000)">
            <g id="Page-1" sketch:type="MSLayerGroup" transform="translate(50.000000, 692.000000)">
                <g id="Group-3">
                    <mask id="mask-2" sketch:name="Clip 2" fill="white">
                        <use xlink:href="#path-1"></use>
                    </mask>
                    <g id="Clip-2"></g>
                    <path d="M203.9894,45.8333 C181.3224,15.5003 134.9894,-14.8337 70.3224,8.5003 C5.6564,31.8333 -22.6776,118.8333 20.9894,180.1663 C64.6564,241.5003 163.4064,239.3333 205.9064,190.5833 L205.9064,121.8333 L115.9064,121.8333 L115.9064,156.3333 L169.1564,156.3333 L169.1564,174.3333 C150.6564,191.0833 97.6564,203.8333 65.4064,175.0833 C33.1564,146.3333 33.9064,106.8333 40.1564,89.5833 C46.4064,72.3333 64.5144,31.6593 119.9064,36.5833 C153.6564,39.5833 170.4064,59.8333 176.9064,70.5833 L203.9894,45.8333 Z" id="Fill-1" fill="#73DBF9" sketch:type="MSShapeGroup" mask="url(#mask-2)"></path>
                </g>
                <mask id="mask-4" sketch:name="Clip 5" fill="white">
                    <use xlink:href="#path-3"></use>
                </mask>
                <g id="Clip-5"></g>
                <path d="M232.656,2.833 L269.323,2.833 L269.323,224.5 L232.656,224.5 L232.656,2.833 Z" id="Fill-4" fill="#73DBF9" sketch:type="MSShapeGroup" mask="url(#mask-4)"></path>
                <path d="M340.3498,138.5887 L340.5748,39.0157 C365.6568,34.8997 410.3988,40.8557 409.1558,90.0837 C407.9128,139.3037 366.3628,139.3337 340.3498,138.5887 L340.3498,138.5887 Z M402.9058,163.0837 C406.5358,160.9787 455.6558,134.0837 442.9058,68.5837 C431.1018,7.9437 371.6828,2.0827 340.1558,2.8337 C331.1168,3.0487 303.9898,2.8337 303.9898,2.8337 L303.9898,224.4997 L340.1558,224.4997 L340.2708,173.5207 C343.3228,173.6447 359.5428,174.2627 364.6558,173.5837 L407.6558,224.4997 L454.6558,224.4997 L402.9058,163.0837 Z" id="Fill-6" fill="#73DBF9" sketch:type="MSShapeGroup" mask="url(#mask-4)"></path>
                <path d="M506.3227,189.5833 L506.3227,2.8333 L469.6557,2.8333 L469.6557,224.5003 L506.3227,224.5003 L584.6557,224.5003 L584.6557,189.5833 L506.3227,189.5833 Z" id="Fill-7" fill="#73DBF9" sketch:type="MSShapeGroup" mask="url(#mask-4)"></path>
                <path d="M614.406,37.716 C622.156,17.466 641.406,0.716 669.406,0.466 C697.406,0.216 720.656,8.177 742.406,45.966 L711.656,63.716 C701.156,40.966 679.406,27.966 659.156,38.966 C641.762,48.414 643.637,69.903 669.656,81.178 C719.656,102.845 763.656,128.845 745.656,186.716 C739.18,207.536 710.913,227.946 675.906,226.966 C629.906,225.678 610.656,201.678 595.406,169.716 L627.156,151.966 C636.156,174.466 648.836,191.747 680.323,190.511 C720.656,188.928 714.158,154.715 705.156,143.966 C686.989,122.274 639.156,113.226 622.406,91.466 C607.639,72.282 610.749,47.271 614.406,37.716" id="Fill-8" fill="#73DBF9" sketch:type="MSShapeGroup" mask="url(#mask-4)"></path>
            </g>
        </g>
    </g>
</svg>