<?xml version="1.0" encoding="utf-8"?>
<!-- Generator: Adobe Illustrator 19.1.0, SVG Export Plug-In . SVG Version: 6.00 Build 0)  -->
<svg version="1.1" id="Layer_1" xmlns="http://www.w3.org/2000/svg" xmlns:xlink="http://www.w3.org/1999/xlink" x="0px" y="0px"
	 viewBox="0 0 749.8 226.8" enable-background="new 0 0 749.8 226.8" xml:space="preserve">
<path fill="#73DBF8" d="M204,45.6C181.3,15.3,135-15.1,70.3,8.3s-93,110.3-49.3,171.7s142.4,59.2,184.9,10.4v-68.8h-90v34.5h53.3v18
	c-18.5,16.8-71.5,29.5-103.8,0.8s-31.5-68.2-25.2-85.5s24.4-57.9,79.8-53c33.8,3,50.5,23.2,57,34L204,45.6z"/>
<rect x="232.7" y="2.6" fill="#73DBF8" width="36.7" height="221.7"/>
<path fill="#73DBF8" d="M402.9,162.9c3.6-2.1,52.8-29,40-94.5C431.1,7.7,371.7,1.9,340.2,2.6c-9,0.2-36.2,0-36.2,0v221.7h36.2
	l0.1-51c3.1,0.1,19.3,0.7,24.4,0.1l43,50.9h47L402.9,162.9z M340.3,138.4l0.2-99.6c25.1-4.1,69.8,1.8,68.6,51.1
	C407.9,139.1,366.4,139.1,340.3,138.4z"/>
<polygon fill="#73DBF8" points="506.3,189.4 506.3,2.6 469.7,2.6 469.7,224.3 506.3,224.3 584.7,224.3 584.7,189.4 "/>
<path fill="#73DBF8" d="M669.6,80.6c-27.7-12.2-27.9-32.8-10.5-42.2c20.2-11,42,2,52.5,24.8l30.8-17.8c-21.8-37.8-45-45.8-73-45.5
	s-47.2,17-55,37.2c-3.7,9.6-6.8,34.6,8,53.8c16.8,21.8,64.6,30.8,82.8,52.5c9,10.7,15.5,45-24.8,46.5c-31.5,1.2-44.2-16-53.2-38.5
	l-31.8,17.8c15.2,32,34.5,56,80.5,57.2c25.8,1.6,75.9-9.9,73.8-63.9S689.1,89.2,669.6,80.6z"/>
</svg>
